OpenSim_Sub07_CSBaseline_GRF.mot
version=1
nRows=34
nColumns=19
inDegrees=no
endheader
time	lFx	lFy	lFz	lCOPx	lCOPy	lCOPz	rFx	rFy	rFz	rCOPx	rCOPy	rCOPz	lMx	lMy	lMz	rMx	rMy	rMz
58.41000000	-0.03397301	3.18577918	-4.07219994	-0.01982746	0	0.01286471	54.55124294	770.44801593	-42.01343551	0.59263772	0	-0.43103828	0	-0.00497934	0	0	-0.17407347	-0.00000000
58.42000000	-2.97341004	6.27591896	-3.82183288	0.00649305	0	-0.00379812	57.71601738	770.57724403	-41.81056446	0.58712166	0	-0.43091491	0	-0.33820994	0	0	-0.28975549	0.00000000
58.43000000	-5.60749293	11.54339379	-3.73657923	0.09504473	0	-0.06039939	60.85933414	767.70771795	-41.41786782	0.58182283	0	-0.43082646	0	-1.01565677	0	0	-0.40954936	-0.00000000
58.44000000	-5.72557460	21.12763989	-4.27585253	0.26628426	0	-0.17047485	63.82494610	761.26779444	-40.77084009	0.57665736	0	-0.43074188	0	-1.82587609	0	0	-0.52945388	0
58.45000000	-0.74973325	37.97098621	-6.07000141	0.48308080	0	-0.31235423	66.56215402	750.90354749	-39.71857562	0.57149635	0	-0.43064521	0	-1.98273933	0	0	-0.64716834	0
58.46000000	9.10786321	63.11302904	-9.47992169	0.67939236	0	-0.44699148	69.17790426	736.52896019	-38.15752278	0.56597262	0	-0.43055575	0	-0.69754533	0	0	-0.69816212	-0.00000000
58.47000000	17.91649703	92.63963244	-13.68296258	0.81136616	0	-0.54177123	71.72276558	718.50202610	-36.11088223	0.56036901	0	-0.43047488	0	1.68480398	0	0	-0.65826264	-0.00000000
58.48000000	20.32641656	120.50161945	-16.81163641	0.86915766	0	-0.58479133	73.87874661	697.02373126	-33.50693282	0.55498560	0	-0.43043784	0	4.07940057	0	0	-0.60385321	0
58.49000000	17.02482831	145.07245238	-17.91353539	0.88188148	0	-0.59449923	75.28529126	672.15587698	-30.23940234	0.54979552	0	-0.43048979	0	5.85809615	0	0	-0.48706244	0
58.50000000	11.53738690	170.84241498	-16.93165245	0.87874409	0	-0.59139765	75.89668116	644.02370234	-26.31648281	0.54461680	0	-0.43064391	0	7.02485308	0	0	-0.20063733	0.00000000
58.51000000	5.35077754	203.74521569	-13.37712564	0.87450320	0	-0.58672690	75.87184208	613.16208402	-21.85417174	0.53951110	0	-0.43081681	0	7.52350776	0	0	0.17223245	0.00000000
58.52000000	-1.58788608	245.79363458	-7.07467972	0.87357877	0	-0.58420356	75.36737589	580.04508514	-17.15586958	0.53456721	0	-0.43093981	0	7.34308828	0	0	0.54202360	-0.00000000
58.53000000	-8.98719487	292.44622437	1.13761241	0.87532280	0	-0.58383333	74.51471289	544.55475078	-12.46068806	0.52978196	0	-0.43106725	0	6.68148087	0	0	0.94730153	0
58.54000000	-16.13328610	335.78147566	9.48609791	0.87752838	0	-0.58444913	73.23467974	506.18284701	-7.72211314	0.52526625	0	-0.43123132	0	5.90554647	0	0	1.40180535	0
58.55000000	-22.63488952	370.48214048	16.07136584	0.87919513	0	-0.58506566	71.09318321	464.50921509	-2.95423930	0.52091314	0	-0.43136585	0	5.36987552	0	0	1.80708190	0
58.56000000	-28.52339556	397.24980897	20.51030376	0.88000970	0	-0.58524462	67.57435665	419.63934645	1.40894661	0.51659929	0	-0.43133087	0	5.18363314	0	0	2.10226836	0
58.57000000	-34.33068480	421.86896104	24.19680815	0.87990686	0	-0.58505589	62.59758643	372.15736327	4.77390143	0.51247315	0	-0.43102014	0	5.08263883	0	0	2.21231674	0
58.58000000	-40.22628255	449.62718346	27.95000467	0.87874384	0	-0.58461568	56.39873952	323.21239648	6.53466605	0.50887710	0	-0.43042557	0	4.98693580	0	0	2.10599472	0
58.59000000	-45.58472115	482.38348026	31.21439167	0.87676562	0	-0.58402114	49.46661009	274.27728488	6.34025250	0.50653599	0	-0.42979685	0	5.09261663	0	0	1.84327614	0.00000000
58.60000000	-50.22377370	519.33195470	33.57366085	0.87424006	0	-0.58340737	41.86030893	226.94301270	4.43985564	0.50686107	0	-0.43025639	0	5.48145762	0	0	1.53302544	0
58.61000000	-53.57252938	558.31352022	35.38332753	0.87072015	0	-0.58282951	33.43595977	183.04960424	1.52811616	0.51118682	0	-0.43321255	0	6.08901456	0	0	1.17444206	0
58.62000000	-54.97522945	597.01576364	37.51784423	0.86610838	0	-0.58235282	24.93918950	144.15918497	-1.50824914	0.51864666	0	-0.43853004	0	6.71186019	0	0	0.81193217	0
58.63000000	-54.83519128	633.23691731	40.21526833	0.86070912	0	-0.58203625	17.49386216	111.04247419	-3.79501913	0.52225712	0	-0.44139954	0	7.19765973	0	0	0.45229223	0
58.64000000	-53.92807255	665.07291146	43.17790649	0.85515406	0	-0.58190430	11.69162584	83.54758300	-4.90018442	0.50598561	0	-0.42748679	0	7.51883069	0	0	0.14183759	-0.00000000
58.65000000	-52.94456924	691.67705510	46.31760468	0.84996627	0	-0.58193244	7.80370205	60.61531061	-5.06467507	0.44407413	0	-0.37265889	0	7.64837788	0	0	-0.09548936	0.00000000
58.66000000	-52.09957935	713.21271812	49.55156292	0.84512620	0	-0.58205445	5.15890190	41.57458866	-4.94453923	0.31646935	0	-0.25960120	0	7.62236493	0	0	-0.19093833	0
58.67000000	-51.25312509	730.32713642	52.48832470	0.84031133	0	-0.58223552	2.84846596	26.39789554	-4.76978358	0.15478250	0	-0.12221959	0	7.55355117	0	0	-0.16681760	-0.00000000
58.68000000	-50.22763914	743.88665831	54.78612286	0.83520617	0	-0.58243220	0.84590231	14.96003427	-4.12908730	0.04151168	0	-0.03019229	0	7.50992008	0	0	-0.08455959	-0.00000000
58.69000000	-49.03219676	754.73344933	56.31650304	0.82993557	0	-0.58262159	-0.37523822	6.89574571	-2.89855555	-0.00733250	0	0.00787618	0	7.51167027	0	0	-0.02421979	0.00000000
58.70000000	-47.83004285	763.05349974	57.01263514	0.82476717	0	-0.58279627	-0.66930078	2.10600432	-1.32643983	-0.01686255	0	0.01431596	0	7.55720753	0	0	0.00276237	-0.00000000
58.71000000	-46.64117601	768.51409113	56.99242729	0.81980484	0	-0.58294920	-0.54065644	0.21294878	-0.24497098	-0.01166907	0	0.00947139	0	7.59290938	0	0	0.00861564	-0.00000000
58.72000000	-45.39838110	770.88568331	56.55256565	0.81497549	0	-0.58305200	-0.33997210	-0.03100208	-0.06028782	-0.00496628	0	0.00386503	0	7.59635055	0	0	0.00622164	-0.00000000
58.73000000	-44.10869094	770.33595961	55.98531571	0.81019810	0	-0.58314276	-0.21152738	0.25152910	-0.00104295	-0.00092885	0	0.00062006	0	7.59576241	0	0	0.00274679	0.00000000
58.74000000	-42.92175903	767.13162363	55.50729347	0.80533485	0	-0.58323853	-0.16590502	0.56721702	-0.03065203	0.00056042	0	-0.00051910	0	7.54532425	0	0	0.00057502	-0.00000000
